<svg xmlns="http://www.w3.org/2000/svg" width="1788" height="552" viewBox="0 0 1788 552" version="1.1"><path d="M 1332.376 307.989 C 1264.689 310.870, 1199.422 320.238, 1130.500 336.965 C 1087.999 347.279, 1039.438 361.740, 962.500 386.993 C 839.782 427.273, 788.440 442.113, 719 457.377 C 506.937 503.993, 333.903 491.552, 189.643 419.319 C 181.472 415.228, 174.593 412.074, 174.356 412.311 C 173.650 413.017, 195.543 432.587, 209.454 443.685 C 292.044 509.574, 400.994 546.068, 526.500 549.882 C 612.861 552.506, 706.030 540.578, 792 515.891 C 852.534 498.509, 896.973 481.965, 1031.812 426.613 C 1118.919 390.855, 1166.919 373.342, 1218.500 358.500 C 1381.526 311.589, 1510.304 318.762, 1650.092 382.542 C 1657.910 386.109, 1664.455 388.879, 1664.636 388.697 C 1664.818 388.516, 1659.461 385.177, 1652.733 381.277 C 1581.011 339.707, 1505.005 316.424, 1418.583 309.548 C 1394.939 307.667, 1356.343 306.969, 1332.376 307.989" stroke="none" fill="#ffcc29" fill-rule="evenodd"/><path d="M 1368 423.602 C 1241.919 429.415, 1116.299 452.653, 965.298 498.096 C 920.697 511.518, 822.137 544.593, 819.666 546.967 C 819.207 547.408, 824.382 546.444, 831.166 544.826 C 922.355 523.072, 992.387 512.734, 1074.500 508.906 C 1102.880 507.583, 1196.681 508.237, 1225 509.956 C 1299.358 514.469, 1361.135 522.005, 1419 533.620 C 1436.146 537.062, 1473.782 545.995, 1487.353 549.845 L 1494.206 551.788 1503.739 547.364 C 1550.526 525.648, 1606.870 510.888, 1665.500 504.986 C 1697.155 501.800, 1743.526 502.033, 1771.811 505.519 C 1778.668 506.364, 1784.457 506.876, 1784.677 506.656 C 1785.356 505.978, 1749.835 490.260, 1729.725 482.340 C 1647.467 449.946, 1566.889 432.041, 1471.500 424.961 C 1457.590 423.928, 1382.348 422.940, 1368 423.602" stroke="none" fill="#a8cf45" fill-rule="evenodd"/><path d="M 1378.500 345.622 C 1281.543 353.037, 1191.279 377.768, 1049.500 435.763 C 1034.650 441.837, 998.425 456.934, 969 469.311 C 920.216 489.831, 872.810 509.330, 854.244 516.513 C 839.340 522.279, 848.532 519.767, 872.607 511.493 C 989.544 471.307, 1106.729 440.625, 1206.500 424.072 C 1370.325 396.892, 1515.425 401.369, 1645.999 437.633 C 1685.578 448.625, 1733.228 465.918, 1767.500 481.729 C 1785.559 490.061, 1788 491.116, 1788 490.598 C 1788 489.737, 1766.124 471.979, 1752 461.374 C 1716.364 434.618, 1680.206 412.640, 1648.500 398.463 C 1587.223 371.063, 1531.065 354.857, 1473.443 347.943 C 1458.812 346.188, 1448.856 345.739, 1419.500 345.515 C 1399.700 345.364, 1381.250 345.412, 1378.500 345.622" stroke="none" fill="#ec268f" fill-rule="evenodd"/><path d="M 1324.024 1.544 C 1316.271 3.711, 1311.136 7.006, 1304.735 13.920 C 1297.593 21.633, 1294.758 28.703, 1294.675 39 C 1294.596 48.760, 1297.387 55.364, 1304.166 61.459 C 1310.561 67.209, 1316.944 69.330, 1326.326 68.824 C 1355.884 67.227, 1373.924 30.525, 1355.290 9.899 C 1348.060 1.897, 1335.126 -1.560, 1324.024 1.544 M 449.867 81.075 C 425.846 83.622, 406.148 92.991, 388.166 110.422 C 373.841 124.308, 364.663 138.584, 359.187 155.500 C 354.625 169.590, 353.500 177.120, 353.505 193.500 C 353.509 206.406, 353.836 209.547, 355.847 216 C 364.919 245.116, 386.697 262.346, 421 267.548 C 445.843 271.315, 470.744 267.553, 493.500 256.597 C 506.273 250.447, 514.254 244.690, 523.064 235.272 C 528.698 229.249, 539 214.690, 539 212.750 C 539 212.338, 524.772 212, 507.382 212 L 475.764 212 472.178 215.149 C 465.814 220.736, 458.617 223.355, 448.354 223.817 C 434.994 224.419, 427.841 221.589, 422.284 213.500 C 419.478 209.415, 417 200.655, 417 194.818 L 417 190 481.441 190 C 516.884 190, 546.121 189.614, 546.413 189.141 C 546.704 188.669, 547.478 181.904, 548.131 174.107 C 551.607 132.621, 539.320 103.612, 512.726 90.522 C 501.397 84.945, 491.581 82.397, 476.252 81.052 C 463.198 79.906, 460.872 79.908, 449.867 81.075 M 685.643 81.584 C 674 84.403, 662.822 91.704, 653.796 102.387 C 650.955 105.749, 648.110 109.087, 647.475 109.805 C 646.703 110.676, 646.923 107.358, 648.139 99.805 C 649.139 93.587, 649.967 87.487, 649.979 86.250 L 650 84 617.579 84 L 585.159 84 584.592 86.750 C 583.867 90.267, 557 262.042, 557 263.162 C 557 263.623, 572.291 264, 590.981 264 L 624.962 264 625.453 261.750 C 625.724 260.512, 628.452 243.300, 631.516 223.500 C 636.963 188.305, 638.435 180.687, 641.436 172.181 C 642.669 168.687, 642.686 168, 641.539 168 C 639.276 168, 631.206 171.763, 626.452 175.033 C 624.003 176.718, 622 177.797, 622 177.432 C 622 175.764, 635.076 162.277, 642.390 156.403 C 661.766 140.839, 682.064 135.821, 703.076 141.403 C 706.142 142.217, 709.272 143.022, 710.030 143.192 C 711.280 143.471, 714.833 124.165, 720.397 86.860 L 721.089 82.221 714.713 81.110 C 706.182 79.625, 692.840 79.842, 685.643 81.584 M 817.500 80.700 C 796.520 82.606, 777.074 90.023, 760.473 102.451 C 739.567 118.103, 726.171 138.067, 719.223 163.926 C 716.936 172.441, 716.646 175.436, 716.606 191 C 716.565 207.245, 716.747 209.050, 719.148 216.167 C 723.230 228.267, 728.426 236.612, 737.412 245.500 C 754.355 262.258, 770.860 268.401, 799 268.422 C 822.369 268.439, 839.369 264.045, 857.149 253.392 C 866.709 247.664, 880.361 235.170, 886.467 226.562 C 893.184 217.092, 902 198.230, 902 193.330 C 902 192.209, 896.395 192.018, 869.888 192.236 L 837.776 192.500 835.821 197.743 C 833.189 204.800, 825.454 213.128, 818.923 215.938 C 812.623 218.648, 802.238 218.879, 796.153 216.445 C 790.936 214.357, 786.420 209.258, 784.922 203.763 C 783.078 197.001, 784.356 176.370, 787.329 164.879 C 793.613 140.598, 803.103 131, 820.826 131 C 832.707 131, 840.173 136.707, 841.524 146.823 C 841.868 149.395, 842.329 152.069, 842.549 152.764 C 842.862 153.755, 849.807 153.971, 874.724 153.764 L 906.500 153.500 906.335 143.971 C 906.019 125.759, 900.554 112.574, 888.636 101.268 C 884.625 97.463, 878.418 92.882, 874.463 90.807 C 859.340 82.872, 837.072 78.922, 817.500 80.700 M 1241.721 81.567 C 1233.110 83.653, 1225.688 87.673, 1217.412 94.735 C 1213.335 98.213, 1209.981 101.383, 1209.957 101.780 C 1209.934 102.176, 1208.210 104.440, 1206.127 106.811 L 1202.340 111.123 1204.123 100.311 C 1205.104 94.365, 1205.927 88.263, 1205.953 86.750 L 1206 84 1173.579 84 L 1141.159 84 1140.599 86.750 C 1139.924 90.061, 1113 262.295, 1113 263.298 C 1113 263.684, 1128.291 264, 1146.981 264 L 1180.962 264 1181.452 261.750 C 1181.722 260.512, 1184.621 242.400, 1187.896 221.500 C 1191.325 199.616, 1194.897 180.213, 1196.319 175.750 C 1198.167 169.947, 1198.458 168, 1197.477 168 C 1195.063 168, 1186.648 172.065, 1181.695 175.624 C 1175.883 179.799, 1176.339 178.800, 1184.434 169.625 C 1201.144 150.688, 1222.846 139.081, 1241.662 139.017 C 1247.203 138.999, 1259.732 141.152, 1264.286 142.905 C 1266.394 143.717, 1267.177 143.677, 1267.505 142.739 C 1267.921 141.548, 1277 84.338, 1277 82.905 C 1277 81.661, 1264.571 79.998, 1255.918 80.083 C 1251.288 80.129, 1244.899 80.797, 1241.721 81.567 M 1458.346 81.144 C 1433.635 83.498, 1413.263 92.358, 1396.593 108 C 1374.559 128.675, 1361.007 160.671, 1361.013 192 C 1361.019 218.981, 1372.957 243.179, 1392.583 255.991 C 1418.153 272.683, 1466.605 273.259, 1498.500 257.250 C 1507.910 252.527, 1512.911 248.987, 1521.286 241.120 C 1538.318 225.123, 1550.255 203.024, 1555.113 178.500 C 1557.204 167.947, 1556.924 144.229, 1554.606 135.500 C 1545.907 102.738, 1523.015 84.507, 1486.188 81.015 C 1474.244 79.883, 1471.450 79.896, 1458.346 81.144 M 157.500 85.477 C 143.570 88.058, 131.589 94.011, 119.750 104.233 C 116.588 106.964, 114.002 108.816, 114.004 108.349 C 114.006 107.882, 114.673 103.450, 115.486 98.500 C 116.300 93.550, 116.973 88.487, 116.983 87.250 L 117 85 84.519 85 L 52.038 85 51.521 87.250 C 50.782 90.467, 24 262.215, 24 263.736 C 24 264.730, 31.262 265, 58 265 C 76.700 265, 92 264.646, 92 264.213 C 92 263.780, 95.375 241.904, 99.500 215.600 C 103.625 189.295, 107 167.381, 107 166.901 C 107 165.476, 96.941 169.874, 90.760 174.002 C 82.415 179.574, 84.823 176.104, 99.364 161.603 C 112.210 148.792, 120.288 143.174, 129.925 140.347 C 136.165 138.517, 144.113 138.973, 148.871 141.433 C 157.735 146.017, 157.607 153.772, 147.632 216.463 C 143.434 242.843, 140 264.555, 140 264.713 C 140 264.871, 155.280 265, 173.955 265 L 207.909 265 208.513 261.750 C 208.845 259.962, 213.042 233.394, 217.840 202.709 L 226.564 146.917 230.532 144.556 C 236.689 140.891, 245.551 138.674, 251.563 139.294 C 262.841 140.458, 266 144.661, 266 158.503 C 266 164.398, 263.581 182.681, 258.500 215.198 C 254.375 241.595, 251 263.599, 251 264.096 C 251 264.617, 265.410 265, 285 265 C 303.700 265, 319 264.802, 319 264.560 C 319 264.317, 323.340 236.755, 328.644 203.310 C 339.246 136.464, 340.140 126.644, 336.598 116 C 331.782 101.530, 321.768 92.145, 305 86.388 C 297.287 83.740, 273.602 83.761, 263.500 86.425 C 250.344 89.894, 239.905 95.665, 229.371 105.292 C 226.379 108.027, 223.799 110.092, 223.639 109.882 C 223.479 109.672, 222.372 107.877, 221.181 105.894 C 215.660 96.704, 202.557 88.074, 190.122 85.438 C 182.007 83.718, 166.898 83.736, 157.500 85.477 M 937 85.975 C 937 86.512, 932.725 114.967, 927.500 149.210 C 917.015 217.923, 916.371 225.517, 920.028 237.354 C 926.385 257.937, 948.249 270.250, 975.683 268.696 C 997.089 267.484, 1012.360 261.175, 1026.877 247.548 C 1032.175 242.573, 1032.244 242.544, 1031.646 245.500 C 1030.767 249.843, 1029.016 261.286, 1029.008 262.750 C 1029.002 263.725, 1036.212 264, 1061.750 263.998 L 1094.500 263.997 1107.900 175.748 C 1115.269 127.212, 1121.507 86.932, 1121.762 86.237 C 1122.130 85.231, 1115.213 85.027, 1087.882 85.237 L 1053.540 85.500 1045.832 135.810 C 1041.459 164.346, 1037.199 188.896, 1035.989 192.533 C 1031.640 205.600, 1021.055 213.348, 1007.500 213.383 C 999.614 213.404, 995.731 211.918, 992.590 207.679 C 990.899 205.397, 990.441 203.105, 990.190 195.679 C 989.937 188.190, 991.271 177.426, 997.440 137.207 C 1001.598 110.096, 1005 87.258, 1005 86.457 C 1005 85.210, 1000.108 85, 971 85 C 949.574 85, 937 85.361, 937 85.975 M 1290 85.914 C 1290 86.808, 1264.581 254.328, 1263.471 260.750 L 1262.909 264 1296.875 264 L 1330.841 264 1331.419 261.250 C 1332.268 257.209, 1358 87.860, 1358 86.314 C 1358 85.254, 1351.419 85, 1324 85 C 1304.124 85, 1290 85.380, 1290 85.914 M 450.746 126.086 C 438.865 128.886, 429.048 138.222, 423.987 151.534 L 423.050 154 455.164 154 L 487.278 154 486.740 148.071 C 485.772 137.393, 479.081 128.605, 469.920 125.977 C 465.832 124.805, 455.943 124.861, 450.746 126.086 M 1454.086 132.717 C 1441.777 137.064, 1432.696 155.151, 1429.816 181.057 C 1427.024 206.168, 1434.620 218.348, 1452.966 218.176 C 1469.813 218.017, 1479.205 207.979, 1485.668 183.221 C 1487.648 175.636, 1488.230 170.864, 1488.316 161.500 C 1488.528 138.469, 1482.666 130.859, 1464.884 131.079 C 1461.373 131.122, 1456.513 131.860, 1454.086 132.717 M 506 293.399 L 487.500 298.689 487.838 302.594 C 488.023 304.743, 488.532 306.874, 488.968 307.330 C 489.404 307.787, 496.677 307.215, 505.130 306.059 C 527.778 302.963, 525.672 303.838, 526.451 297.194 C 526.818 294.062, 527.347 290.712, 527.627 289.750 C 528.369 287.192, 526.749 287.465, 506 293.399 M 95.686 291.750 C 95.449 292.163, 94.940 294.750, 94.556 297.500 C 94.171 300.250, 93.615 303.512, 93.320 304.750 C 92.788 306.979, 92.885 307, 103.745 307 L 114.707 307 115.853 300.057 C 116.484 296.239, 117 292.639, 117 292.057 C 117 290.839, 96.382 290.542, 95.686 291.750 M 215.899 301.439 C 211.169 302.681, 206.834 303.984, 206.267 304.335 C 205.700 304.685, 204.922 307.903, 204.538 311.486 L 203.841 318 199.527 318 C 194.557 318, 194.465 318.142, 193.482 327.326 L 192.767 334 196.884 334 C 199.148 334, 201 334.188, 201 334.417 C 201 334.646, 199.880 341.959, 198.510 350.667 C 197.141 359.375, 196.016 369.738, 196.010 373.696 C 196.001 380.155, 196.413 381.690, 200.026 388.672 C 202.240 392.951, 204.397 396.797, 204.819 397.219 C 205.241 397.641, 208.816 396.438, 212.764 394.546 L 219.942 391.106 218.471 387.585 C 216.361 382.535, 216.664 372.797, 219.501 354.500 C 222.983 332.041, 222.180 334, 227.912 334 C 233.509 334, 233.521 333.983, 234.518 324.674 L 235.233 318 230.097 318 C 225.287 318, 224.994 317.857, 225.472 315.750 C 226.040 313.245, 227.981 300.923, 227.992 299.750 C 228.004 298.598, 225.266 298.980, 215.899 301.439 M 14.741 319.069 L 8.981 322.042 10.741 324.730 C 12.073 326.767, 12.462 329.248, 12.342 334.959 C 12.220 340.752, 4.904 391.166, 0.472 416.750 L -0.091 420 10.816 420 L 21.723 420 23.406 408.750 C 24.333 402.563, 25.341 396.058, 25.648 394.296 L 26.205 391.092 29.187 393.296 C 31.544 395.039, 33.471 395.485, 38.397 395.430 C 56.200 395.228, 67.635 379.209, 70.917 349.872 C 73.459 327.149, 66.518 316.941, 48.398 316.751 C 43.347 316.698, 39.374 317.354, 34.646 319.024 L 27.997 321.371 25.194 318.686 C 23.652 317.208, 21.965 316.022, 21.445 316.048 C 20.925 316.075, 17.908 317.434, 14.741 319.069 M 162.048 317.158 C 159.600 317.601, 154.946 319.601, 151.707 321.600 L 145.816 325.236 141.517 321.016 C 138.006 317.570, 136.784 316.930, 134.858 317.527 C 132.847 318.149, 125.044 321.782, 124.232 322.474 C 124.085 322.600, 124.645 324.007, 125.476 325.601 C 127.872 330.195, 127.316 339.525, 123.008 367.020 C 120.813 381.034, 119.013 392.837, 119.008 393.250 C 119.004 393.663, 123.698 394, 129.441 394 C 135.184 394, 140.086 393.663, 140.335 393.250 C 140.584 392.837, 142.741 379.789, 145.129 364.253 L 149.469 336.005 152.819 334.416 C 156.731 332.559, 160.616 333.214, 161.459 335.871 C 161.785 336.897, 160.240 349.481, 158.026 363.833 C 155.812 378.186, 154 390.845, 154 391.965 C 154 393.882, 154.607 394, 164.421 394 L 174.841 394 175.408 391.250 C 177.889 379.215, 183.337 340.022, 183.366 334 C 183.421 322.380, 180.083 317.921, 170.500 316.813 C 168.300 316.559, 164.497 316.714, 162.048 317.158 M 388.650 317.049 C 381.606 318.231, 373.586 322.507, 369.407 327.311 C 361.014 336.957, 356.513 351.856, 357.173 367.811 C 357.521 376.223, 357.962 378.211, 360.523 382.892 C 365.799 392.537, 373.263 395.482, 390.722 394.806 C 399.572 394.464, 402.394 393.952, 406.500 391.944 L 411.500 389.500 412.573 381.680 C 413.530 374.714, 413.475 373.916, 412.073 374.382 C 411.208 374.670, 408.025 375.812, 405 376.920 C 398.325 379.365, 389.064 379.601, 384.872 377.434 C 381.314 375.594, 379 370.706, 379 365.032 L 379 361 399.375 361 L 419.750 361 420.375 357.875 C 421.626 351.622, 421.042 334.479, 419.416 329.708 C 417.541 324.204, 412.569 319.472, 407.263 318.139 C 401.163 316.607, 393.842 316.179, 388.650 317.049 M 546 317.141 C 542.425 317.617, 537.250 318.593, 534.500 319.310 C 529.506 320.613, 529.499 320.621, 528.346 326.057 C 527.712 329.051, 527.149 332.682, 527.096 334.126 L 527 336.752 533.750 334.290 C 539.198 332.302, 541.917 331.897, 547.848 332.188 C 556.099 332.593, 558 333.969, 558 339.534 C 558 342.639, 557.865 342.726, 548.750 345.495 C 531.276 350.804, 523.160 355.845, 519.019 363.964 C 516.233 369.423, 514.957 377.861, 516.128 383.073 C 517.957 391.220, 523.464 395, 533.500 395 C 540.585 395, 543.903 393.767, 550.255 388.775 L 554.010 385.824 559.113 390.412 C 561.920 392.935, 564.563 395, 564.986 395 C 565.409 395, 567.498 394.272, 569.628 393.381 C 571.758 392.491, 574.513 391.377, 575.750 390.906 L 578.001 390.049 576.004 386.775 C 573.339 382.404, 573.432 376.779, 576.490 357.333 C 581.096 328.039, 579.515 321.221, 567.410 318.181 C 561.135 316.606, 552.991 316.210, 546 317.141 M 614 317.012 C 599.151 319.640, 590.800 328.566, 590.800 341.808 C 590.800 350.052, 593.500 354.907, 600.868 359.910 C 607.550 364.448, 612 369.289, 612 372.021 C 612 373.048, 610.936 375.126, 609.635 376.638 C 607.606 378.997, 606.349 379.447, 600.802 379.800 C 595.584 380.132, 593.512 379.792, 590.071 378.036 C 587.725 376.839, 585.602 376.065, 585.351 376.315 C 584.486 377.181, 582.731 389.857, 583.279 391.286 C 584.814 395.284, 606.223 396.385, 615.433 392.939 C 634.197 385.919, 638.980 363.219, 624.226 351.208 C 613.605 342.562, 612 340.823, 612 337.956 C 612 332.220, 622.387 328.556, 627.559 332.468 C 628.626 333.276, 629.821 333.951, 630.213 333.968 C 630.800 333.994, 636.757 325.742, 639.334 321.333 C 640.955 318.559, 622.777 315.458, 614 317.012 M 316.250 319.649 C 313.363 321.015, 311 322.498, 311 322.944 C 311 323.390, 311.675 325.371, 312.500 327.346 C 314.639 332.465, 314.460 335.085, 310 364 C 307.800 378.261, 306 390.845, 306 391.965 C 306 393.881, 306.607 394, 316.383 394 C 325.433 394, 326.825 393.775, 327.221 392.250 C 327.470 391.288, 329.435 378.838, 331.587 364.585 L 335.500 338.671 338.500 336.839 C 340.384 335.689, 343.423 335.006, 346.671 335.004 C 352.406 335, 352.056 335.511, 353.520 325 C 353.864 322.525, 354.369 319.712, 354.640 318.750 C 355.783 314.706, 343.616 317.825, 337.603 323.118 L 333.189 327.003 329.001 322.002 C 326.698 319.251, 324.068 317.038, 323.157 317.083 C 322.246 317.129, 319.137 318.284, 316.250 319.649 M 437.805 319.827 C 432.214 322.452, 432.136 322.545, 433.506 325 C 436.383 330.153, 436.189 335.151, 432.050 362.500 C 429.803 377.350, 427.739 390.512, 427.463 391.750 C 426.967 393.976, 427.076 394, 437.856 394 L 448.750 394 449.266 391.250 C 449.549 389.738, 451.507 377.072, 453.617 363.104 L 457.454 337.708 460.695 336.354 C 462.477 335.609, 466.134 335, 468.821 335 L 473.707 335 474.853 328.057 C 476.435 318.482, 476.345 317, 474.182 317 C 469.959 317, 462.194 320.180, 458.779 323.309 L 455.104 326.674 450.340 321.837 C 447.719 319.177, 445.108 317.034, 444.538 317.077 C 443.967 317.119, 440.937 318.356, 437.805 319.827 M 85.663 355.250 C 82.508 375.738, 79.943 392.853, 79.963 393.284 C 79.983 393.715, 84.809 393.940, 90.687 393.784 L 101.374 393.500 107.155 356.500 C 110.335 336.150, 112.951 319.163, 112.968 318.750 C 112.986 318.337, 108.140 318, 102.200 318 L 91.400 318 85.663 355.250 M 244.487 319.250 C 243.305 322.528, 236.007 373.575, 236.056 378.215 C 236.183 390.061, 240.751 395, 251.583 395 C 259.351 395, 262.216 393.952, 268.192 388.926 L 272.883 384.979 276.653 389.490 C 280.027 393.525, 280.867 394, 284.632 394 C 289.673 394, 288.421 398.649, 294.998 355.500 C 297.764 337.350, 300.255 321.488, 300.533 320.250 C 301.033 318.022, 300.929 318, 290.019 318 C 283.959 318, 278.994 318.337, 278.988 318.750 C 278.911 323.374, 269.986 375.312, 269.080 376.404 C 267.370 378.464, 262.506 379.341, 260.059 378.031 C 257.261 376.534, 257.339 375.217, 262 345 C 264.200 330.739, 266 318.830, 266 318.535 C 266 318.241, 261.261 318, 255.469 318 C 247.950 318, 244.808 318.358, 244.487 319.250 M 488.522 321.250 C 486.539 332.579, 478 389.704, 478 391.641 C 478 393.969, 478.136 394, 488.455 394 L 498.909 394 499.478 390.750 C 501.461 379.421, 510 322.296, 510 320.359 C 510 318.031, 509.864 318, 499.545 318 L 489.091 318 488.522 321.250 M 389 332.232 C 386.167 333.687, 383.174 339.154, 382.316 344.438 L 381.738 348 390.253 348 C 398.237 348, 398.804 347.860, 399.370 345.750 C 400.395 341.925, 400.063 335.466, 398.750 333.705 C 397.051 331.424, 392.046 330.668, 389 332.232 M 35.601 332.836 C 34.664 334.352, 30 366.077, 30 370.934 C 30 382.209, 40.438 381.494, 43.887 369.983 C 45.910 363.231, 47.997 349.881, 47.999 343.684 C 48 338.016, 46.829 334.253, 44.600 332.765 C 43.086 331.755, 36.236 331.809, 35.601 332.836 M 548.500 358.503 C 543.649 360.219, 540.473 363.689, 538.877 369.017 C 536.897 375.625, 539.930 379.987, 545.528 378.582 C 550.708 377.282, 552.921 373.152, 554.549 361.750 C 555.317 356.370, 555.004 356.202, 548.500 358.503" stroke="none" fill="#1e3773" fill-rule="evenodd"/></svg>