<svg xmlns="http://www.w3.org/2000/svg" width="1880" height="572" viewBox="0 0 1880 572" version="1.1"><path d="M 1453 438.678 C 1314.510 441.696, 1152.359 472.404, 970.500 530.050 C 924.865 544.516, 863.404 565.466, 861.500 567.205 C 860.867 567.783, 861.050 567.932, 862 567.609 C 865.586 566.393, 909.604 556.653, 932.500 552.010 C 977.234 542.940, 1017.509 536.713, 1058.500 532.530 C 1164.080 521.755, 1305.626 525.099, 1420 541.068 C 1469.992 548.049, 1521.721 558.359, 1560.151 569.004 L 1570.801 571.954 1585.151 565.587 C 1640.599 540.986, 1701.102 526.728, 1770.500 521.910 C 1791.496 520.453, 1841.344 521.320, 1859 523.450 C 1877.087 525.631, 1877.712 525.502, 1869 521.377 C 1854.027 514.286, 1826.039 502.668, 1805.500 495.016 C 1725.819 465.330, 1643.289 447.609, 1554 441.015 C 1535.727 439.665, 1487.941 437.978, 1475 438.226 C 1469.225 438.337, 1459.325 438.540, 1453 438.678" stroke="none" fill="#a8cf45" fill-rule="evenodd"/><path d="M 1462 357.581 C 1393.721 362.102, 1348.082 369.959, 1282.500 388.483 C 1212.080 408.373, 1163.275 426.676, 996.500 495.739 C 967.350 507.810, 931.692 522.336, 917.259 528.019 C 902.826 533.702, 891.157 538.490, 891.326 538.659 C 891.496 538.829, 905.104 534.460, 921.567 528.951 C 1271.842 411.731, 1531.631 391.113, 1760.500 462.368 C 1798.065 474.063, 1849.414 494.041, 1874.230 506.616 C 1876.971 508.006, 1879.053 508.701, 1878.857 508.163 C 1878.661 507.624, 1874 503.471, 1868.500 498.934 C 1827.885 465.429, 1775.626 431.986, 1736.500 414.461 C 1667.478 383.545, 1602.964 365.685, 1538 359.509 C 1522.383 358.025, 1473.882 356.794, 1462 357.581" stroke="none" fill="#ec268f" fill-rule="evenodd"/><path d="M 1381 320.053 C 1294.413 325.650, 1216.840 339.652, 1123 366.621 C 1094.418 374.835, 1069.458 382.629, 998.500 405.497 C 925.802 428.926, 906.071 435.047, 869.910 445.388 C 668.854 502.882, 503.799 516.812, 359.820 488.437 C 303.722 477.381, 249.199 459.009, 199.563 434.435 C 191.348 430.368, 184.476 427.190, 184.293 427.374 C 183.732 427.935, 197.854 440.973, 210 451.109 C 319.424 542.416, 473.515 582.885, 653 567.454 C 749.466 559.161, 835.584 538.476, 946.946 496.851 C 974.294 486.629, 995.091 478.370, 1101.500 435.478 C 1217.500 388.719, 1289.796 365.660, 1364.500 351.593 C 1428.507 339.540, 1495.002 336.876, 1553 344.040 C 1614.039 351.580, 1676.131 369.596, 1736.984 397.423 C 1744.704 400.954, 1750.782 403.456, 1750.491 402.985 C 1749.150 400.816, 1713.849 381.752, 1695 373.018 C 1634.413 344.943, 1575.129 329.106, 1501.760 321.397 C 1483.929 319.524, 1403.104 318.624, 1381 320.053" stroke="none" fill="#ffcc29" fill-rule="evenodd"/><path d="M 1392.746 1.027 C 1363.584 8.355, 1350.787 45.120, 1371.033 63.411 C 1388.284 78.996, 1417.571 70.866, 1429.190 47.267 C 1432.195 41.162, 1432.500 39.712, 1432.500 31.521 C 1432.500 24.400, 1432.047 21.521, 1430.351 17.851 C 1427.580 11.857, 1421.716 6.033, 1415.458 3.061 C 1409.898 0.421, 1399.031 -0.552, 1392.746 1.027 M 727.536 83.061 C 710.542 85.684, 698.168 93.288, 684.832 109.302 C 682.174 112.493, 680.009 114.743, 680.021 114.302 C 680.032 113.861, 680.932 108.100, 682.020 101.500 C 683.109 94.900, 684 88.938, 684 88.250 C 684 87.274, 676.433 87, 649.500 87 C 622.198 87, 615 87.266, 615 88.276 C 615 88.977, 608.475 130.657, 600.500 180.897 C 592.525 231.137, 586 272.638, 586 273.121 C 586 273.610, 601.901 274, 621.827 274 L 657.654 274 658.894 265.750 C 664.970 225.326, 671.296 189.136, 673.505 182.156 C 674.958 177.567, 676.001 173.670, 675.823 173.495 C 675.031 172.716, 663.294 178.306, 657.682 182.135 L 651.500 186.354 656.671 180.427 C 671.944 162.921, 686.768 152.052, 702.500 146.826 C 711.947 143.687, 730.949 143.644, 741.325 146.738 C 746.093 148.160, 748.259 148.430, 748.511 147.636 C 749.061 145.902, 758 88.519, 758 86.719 C 758 83.740, 738.391 81.385, 727.536 83.061 M 1312.173 83.023 C 1295.915 85.266, 1282.052 93.577, 1269.863 108.390 C 1266.932 111.952, 1264.468 114.784, 1264.387 114.683 C 1264.307 114.582, 1265.066 109.550, 1266.074 103.500 C 1267.082 97.450, 1267.927 91.263, 1267.953 89.750 L 1268 87 1234.019 87 L 1200.038 87 1199.505 89.250 C 1199.212 90.487, 1192.676 131.325, 1184.981 180 C 1177.286 228.675, 1170.731 269.738, 1170.415 271.250 L 1169.841 274 1205.921 274 C 1225.764 274, 1242 273.776, 1242 273.503 C 1242 268.859, 1255.839 188.448, 1257.571 183.023 C 1260.367 174.272, 1260.402 174, 1258.750 174.001 C 1256.784 174.002, 1244.843 179.887, 1241.250 182.625 C 1235.156 187.269, 1237.983 183.201, 1247.750 173.272 C 1271.632 148.994, 1293.501 140.464, 1319.162 145.416 C 1323.198 146.195, 1327.800 147.333, 1329.389 147.944 C 1330.977 148.556, 1332.391 148.931, 1332.531 148.778 C 1332.670 148.625, 1334.867 135.225, 1337.414 119 C 1339.960 102.775, 1342.250 88.557, 1342.502 87.405 C 1342.900 85.583, 1342.277 85.163, 1337.730 84.190 C 1329.944 82.525, 1319.308 82.039, 1312.173 83.023 M 468 84.456 C 419.536 92.460, 382.132 130.159, 373.491 179.710 C 371.314 192.193, 371.551 210.570, 374.022 220.876 C 379.336 243.042, 395.807 261.692, 417.979 270.648 C 445.300 281.683, 482.507 281.050, 512.585 269.038 C 533.901 260.526, 552.053 245.604, 562.701 227.841 C 568.572 218.047, 571.645 219, 534.213 219 L 501.212 219 497.921 222.074 C 491.036 228.506, 480.917 231.973, 469 231.983 C 459.565 231.990, 455.172 230.775, 449.786 226.667 C 443.674 222.005, 440.024 214.361, 439.293 204.686 L 438.711 197 506.784 197 L 574.856 197 575.678 191.250 C 576.130 188.088, 576.490 176.725, 576.479 166 C 576.460 148.858, 576.180 145.472, 574.167 138 C 566.344 108.971, 548.449 92.564, 517.483 86.030 C 504.362 83.261, 479.936 82.484, 468 84.456 M 851 84.527 C 822.657 88.971, 795.064 105.033, 777.363 127.390 C 752.566 158.709, 745.740 205.876, 761.628 236.111 C 777.265 265.869, 811.342 281.779, 851.448 278.047 C 891.036 274.363, 922.598 254.540, 939.519 222.731 C 943.658 214.951, 949 202.130, 949 199.977 C 949 199.360, 936.548 199, 915.223 199 L 881.445 199 878.597 205.537 C 875.133 213.490, 868.797 220.255, 861.737 223.542 C 851.798 228.170, 835.745 226.066, 829.788 219.355 C 823.231 211.969, 822.574 193.050, 828.093 170.500 C 833.350 149.023, 842.171 138.501, 857.021 135.996 C 873.706 133.182, 885 140.433, 885 153.960 L 885 159 918.889 159 L 952.777 159 953.413 155.615 C 954.127 151.807, 952.693 137.314, 950.957 130.791 C 949.298 124.560, 943.365 113.696, 938.767 108.473 C 934.269 103.363, 924.953 96.468, 917.500 92.733 C 900.809 84.369, 873.498 80.999, 851 84.527 M 1533.500 83.700 C 1518.566 85.056, 1499.472 90.768, 1487.514 97.455 C 1465.385 109.831, 1447.447 131.867, 1438.231 158 C 1433.151 172.405, 1431.599 181.844, 1431.573 198.500 C 1431.547 215.412, 1432.893 222.382, 1438.594 234.840 C 1445.931 250.874, 1455.764 261.267, 1470.500 268.563 C 1487.072 276.769, 1508.077 280.017, 1531.517 277.999 C 1561.951 275.378, 1583.290 265.922, 1602.500 246.545 C 1623.457 225.406, 1634.916 199.193, 1636.618 168.500 C 1637.630 150.247, 1633.825 132.812, 1625.865 119.239 C 1620.791 110.586, 1607.868 98.115, 1599.463 93.760 C 1582.930 85.195, 1558.334 81.444, 1533.500 83.700 M 165.500 88.417 C 150.466 91.332, 137.341 98.008, 126.252 108.381 C 120.058 114.175, 119.767 114.328, 120.358 111.488 C 121.089 107.972, 123.990 89.840, 123.996 88.750 C 123.998 88.338, 108.475 88, 89.500 88 C 70.525 88, 55 88.216, 55 88.479 C 55 88.743, 48.475 130.030, 40.501 180.229 C 32.526 230.428, 26.001 272.288, 26.001 273.250 C 26 274.884, 28.353 275, 61.421 275 L 96.841 275 97.404 272.250 C 98.969 264.606, 113.069 173.713, 112.806 172.964 C 112.323 171.589, 101.086 176.568, 94.630 181.019 L 88.759 185.065 93.130 179.819 C 99.875 171.722, 111.910 159.844, 118.014 155.258 C 121.047 152.980, 126.672 149.627, 130.514 147.808 C 136.750 144.855, 138.431 144.500, 146.177 144.500 C 156.021 144.500, 159.136 145.967, 162.248 152.071 C 165.485 158.419, 164.577 168.669, 155.982 222.800 C 151.572 250.573, 148.084 273.415, 148.232 273.560 C 148.723 274.041, 218.890 274.445, 219.263 273.969 C 219.465 273.711, 223.829 246.725, 228.962 214 C 234.095 181.275, 238.717 153.671, 239.232 152.658 C 239.747 151.645, 243.168 149.395, 246.834 147.658 C 252.696 144.881, 254.525 144.501, 262 144.509 C 272.231 144.519, 276.350 146.312, 278.791 151.816 C 281.907 158.844, 280.862 170.809, 272.663 222 C 268.479 248.125, 264.830 270.738, 264.553 272.250 L 264.050 275 300.025 275 C 322.758 275, 336 274.641, 336 274.024 C 336 273.487, 340.462 244.799, 345.914 210.274 C 351.367 175.748, 356.115 144.800, 356.465 141.500 C 358.092 126.155, 352.464 110.149, 342.223 100.997 C 331.334 91.265, 318.686 87.031, 300.500 87.028 C 276.529 87.024, 258.237 93.877, 241.579 109.102 C 238.472 111.941, 235.779 114.092, 235.593 113.882 C 235.407 113.672, 234.525 112.065, 233.633 110.311 C 229.691 102.557, 216.991 93.173, 205.297 89.374 C 198.628 87.208, 174.707 86.633, 165.500 88.417 M 985.543 89.250 C 985.326 89.938, 980.557 120.425, 974.944 157 C 965.868 216.149, 964.800 224.495, 965.282 232.500 C 966.208 247.863, 971.718 258.529, 983.221 267.221 C 998.173 278.519, 1022.210 281.665, 1046.167 275.457 C 1057.677 272.474, 1069.549 265.796, 1079.750 256.565 C 1082.638 253.952, 1084.992 252.194, 1084.983 252.657 C 1084.973 253.121, 1084.300 257.550, 1083.486 262.500 C 1082.673 267.450, 1082.006 272.063, 1082.004 272.750 C 1082.001 273.726, 1089.565 274, 1116.500 274 C 1135.475 274, 1151 273.616, 1151 273.147 C 1151 272.678, 1157.300 231.533, 1165 181.713 C 1172.700 131.894, 1179 90.428, 1179 89.566 C 1179 88.174, 1175.066 88, 1143.579 88 L 1108.159 88 1107.587 90.750 C 1107.273 92.263, 1103.614 115.550, 1099.458 142.500 C 1095.301 169.450, 1091.244 193.750, 1090.441 196.500 C 1085.628 212.995, 1073.894 221.668, 1057.512 220.840 C 1049.083 220.415, 1045.623 218.560, 1042.752 212.929 C 1039.629 206.804, 1040.510 196.735, 1049.004 141.511 C 1053.402 112.918, 1057 89.180, 1057 88.761 C 1057 88.343, 1041.011 88, 1021.469 88 C 993.920 88, 985.849 88.281, 985.543 89.250 M 1356.524 89.250 C 1356.297 89.938, 1349.999 130.325, 1342.528 179 C 1335.058 227.675, 1328.682 268.968, 1328.359 270.763 L 1327.773 274.026 1363.636 273.763 L 1399.500 273.500 1413.132 185.500 C 1420.630 137.100, 1427.058 95.362, 1427.417 92.750 L 1428.069 88 1392.503 88 C 1364.938 88, 1356.844 88.281, 1356.524 89.250 M 476 130.036 C 468.779 131.546, 459.461 136.670, 455.263 141.439 C 451.644 145.550, 446 155.603, 446 157.937 C 446 158.666, 456.364 159, 479 159 L 512 159 511.990 153.750 C 511.973 144.225, 506.011 134.990, 497.616 131.484 C 492.849 129.492, 482.055 128.769, 476 130.036 M 1533.147 136.017 C 1522.597 138.232, 1515.362 145.539, 1509.893 159.500 C 1504.879 172.300, 1502.776 184.491, 1503.166 198.500 C 1503.473 209.533, 1503.726 210.885, 1506.305 215.272 C 1507.848 217.897, 1510.965 221.272, 1513.232 222.772 C 1517.035 225.289, 1518.132 225.500, 1527.427 225.500 C 1536.581 225.500, 1537.921 225.252, 1542.113 222.788 C 1548.297 219.153, 1552.206 214.494, 1556.415 205.743 C 1561.256 195.680, 1564.039 183.664, 1564.696 170 C 1565.294 157.567, 1563.679 147.921, 1560.176 143 C 1556.088 137.258, 1543.153 133.916, 1533.147 136.017 M 323 302.440 L 304.500 307.607 304.823 311.543 C 305.001 313.708, 305.353 315.686, 305.605 315.938 C 306.063 316.396, 317.745 315.071, 332.120 312.930 L 339.741 311.795 340.902 304.763 C 341.541 300.895, 341.937 297.627, 341.782 297.502 C 341.627 297.376, 333.175 299.599, 323 302.440 M 256.664 302.432 C 256.362 303.220, 255.806 306.595, 255.428 309.932 L 254.742 316 264.743 316 L 274.744 316 275.399 311.750 C 275.759 309.413, 276.317 306.038, 276.638 304.250 L 277.223 301 267.218 301 C 259.458 301, 257.091 301.321, 256.664 302.432 M 597.105 310.373 C 587.951 312.751, 587.808 312.898, 586.586 321.195 C 585.898 325.864, 585.870 325.892, 581.715 326.195 L 577.535 326.500 576.433 333.250 L 575.331 340 579.166 340 C 581.572 340, 582.996 340.466, 582.990 341.250 C 582.985 341.938, 581.864 349.025, 580.500 357 C 576.987 377.534, 577.128 380.804, 581.964 390.803 C 584.144 395.311, 586.127 399, 586.371 399 C 586.614 399, 589.828 397.648, 593.512 395.995 C 598.124 393.926, 600.044 392.556, 599.676 391.599 C 596.441 383.168, 596.624 379.677, 601.824 350.500 L 603.607 340.500 608.536 340 L 613.465 339.500 614.567 332.750 L 615.669 326 610.834 326 C 608.175 326, 606.001 325.887, 606.001 325.750 C 606.002 325.613, 606.677 321.675, 607.500 317 C 608.323 312.325, 608.998 308.387, 608.999 308.250 C 609.002 307.621, 604.827 308.366, 597.105 310.373 M 877.105 310.373 C 867.942 312.753, 867.809 312.891, 866.577 321.250 C 865.880 325.980, 865.861 326, 861.998 326 C 859.864 326, 857.900 326.353, 857.633 326.785 C 857.366 327.216, 856.832 330.366, 856.445 333.785 L 855.742 340 859.371 340 C 863.784 340, 863.732 339.171, 860.492 357.900 C 857.015 377.990, 857.143 380.833, 861.964 390.803 C 864.144 395.311, 866.127 399, 866.371 399 C 866.614 399, 869.828 397.648, 873.512 395.995 C 878.239 393.874, 880.048 392.568, 879.660 391.557 C 876.590 383.557, 876.707 381.344, 881.795 351 L 883.556 340.500 888.488 340 C 893.899 339.452, 893.313 340.368, 895.354 329.250 L 895.950 326 890.956 326 C 886.298 326, 885.995 325.849, 886.454 323.750 C 887.182 320.425, 889 309.760, 889 308.816 C 889 307.611, 886.448 307.945, 877.105 310.373 M 27.734 325.088 C 14.738 328.150, 6.888 338.440, 8.260 350.614 C 8.910 356.381, 11.037 359.304, 18.728 365 C 26.727 370.924, 28.271 373.451, 26.485 377.698 C 24.235 383.048, 14.524 384.391, 6.834 380.414 C 2.800 378.328, 2.330 378.587, 1.675 383.250 C 1.347 385.587, 0.794 388.892, 0.446 390.594 C -0.167 393.587, -0.030 393.733, 4.656 395.094 C 7.320 395.867, 13.325 396.476, 18 396.447 C 28.427 396.382, 35.102 393.782, 40.845 387.553 C 45.718 382.266, 47.344 377.438, 46.798 369.881 C 46.288 362.839, 44.729 360.452, 36.037 353.404 C 32.580 350.601, 29.317 347.531, 28.786 346.581 C 27.427 344.153, 28.631 340.268, 31.162 338.913 C 34.120 337.330, 40.410 337.570, 43.188 339.372 C 45.434 340.829, 45.625 340.689, 49.915 334.434 C 52.343 330.893, 54.051 327.718, 53.711 327.378 C 53.371 327.037, 50.484 326.145, 47.296 325.395 C 40.819 323.871, 33.395 323.755, 27.734 325.088 M 86.383 324.890 C 76.203 327.512, 68.783 333.964, 63.867 344.471 C 55.400 362.565, 56.557 383.984, 66.409 391.498 C 74.014 397.299, 91.284 398.485, 103.204 394.025 L 108.713 391.964 109.888 384.847 C 110.535 380.933, 110.838 377.505, 110.562 377.229 C 110.286 376.953, 107.685 377.768, 104.780 379.040 C 100.951 380.718, 97.514 381.374, 92.274 381.427 C 85.717 381.493, 84.798 381.251, 82.361 378.815 C 80.269 376.723, 79.573 374.900, 79.214 370.565 L 78.752 365 97.831 365 L 116.909 365 117.676 361.250 C 118.097 359.188, 118.441 353.442, 118.439 348.482 C 118.434 331.832, 112.292 325.042, 96.644 324.387 C 92.715 324.222, 88.097 324.449, 86.383 324.890 M 156.384 325.344 C 138.273 329.978, 126.692 347.011, 126.605 369.141 C 126.575 376.802, 126.911 378.445, 129.564 383.641 C 135.789 395.828, 150.185 399.966, 167.119 394.435 L 171.737 392.926 172.954 385.382 C 173.624 381.233, 173.959 377.625, 173.699 377.365 C 173.438 377.105, 171.727 377.804, 169.895 378.917 C 162.461 383.439, 154.513 382.372, 150.398 376.301 C 147.622 372.204, 147.942 359.573, 151.027 351.500 C 155.137 340.745, 162.238 336.316, 171.433 338.770 C 173.641 339.359, 175.714 339.676, 176.041 339.475 C 176.367 339.273, 178.546 336.383, 180.881 333.054 L 185.128 326.999 182.314 325.916 C 177.879 324.209, 162.175 323.863, 156.384 325.344 M 214.384 325.344 C 196.273 329.978, 184.692 347.011, 184.605 369.141 C 184.575 376.802, 184.911 378.445, 187.564 383.641 C 193.789 395.828, 208.185 399.966, 225.119 394.435 L 229.737 392.926 230.954 385.382 C 231.624 381.233, 231.965 377.631, 231.712 377.378 C 231.459 377.126, 229.699 377.835, 227.802 378.954 C 218.931 384.188, 210.679 381.964, 207.433 373.464 C 205.877 369.390, 205.779 367.768, 206.702 361.362 C 207.943 352.749, 212.205 343.527, 216.323 340.545 C 219.015 338.595, 226.401 337.944, 232.338 339.132 C 233.648 339.394, 235.466 337.709, 238.674 333.258 L 243.173 327.016 240.337 325.925 C 235.882 324.210, 220.188 323.859, 214.384 325.344 M 307.734 325.088 C 290.544 329.138, 280.632 346.055, 280.540 371.500 C 280.505 381.196, 280.773 382.976, 282.803 386.517 C 288.068 395.699, 300.918 399.256, 315.294 395.512 C 326.846 392.503, 334.057 384.749, 338.637 370.412 C 344.157 353.128, 342.730 336.603, 335.124 329.731 C 329.412 324.570, 318.083 322.650, 307.734 325.088 M 359.679 326.716 C 354.642 328.996, 353.956 329.631, 354.579 331.426 C 356.676 337.458, 356.052 347.080, 352.073 370.078 C 349.833 383.027, 348 393.931, 348 394.310 C 348 394.690, 352.491 395, 357.981 395 C 367.513 395, 367.985 394.899, 368.476 392.750 C 368.758 391.512, 370.778 379.704, 372.965 366.509 C 377.315 340.250, 377.562 339.664, 384 340.205 C 387.135 340.469, 387.532 340.834, 387.811 343.712 C 388.057 346.266, 383.022 379.226, 380.396 392.250 L 379.841 395 389.853 395 C 398.526 395, 399.934 394.766, 400.380 393.250 C 401.677 388.842, 409 342.864, 409 339.130 C 409 328.868, 404.363 324.500, 393.469 324.500 C 386.950 324.500, 385.821 324.826, 380.083 328.368 L 373.816 332.236 369.658 328.158 L 365.500 324.081 359.679 326.716 M 463.294 325.797 C 458.780 326.777, 454.777 327.890, 454.398 328.269 C 453.694 328.973, 451.042 343, 451.613 343 C 451.785 343, 454.305 342.046, 457.213 340.879 C 463.592 338.321, 475.772 337.740, 478.344 339.872 C 479.331 340.690, 479.998 342.711, 479.995 344.872 L 479.990 348.500 471.745 350.899 C 459.270 354.529, 451.681 358.420, 447.245 363.459 C 442.697 368.626, 441 373.517, 441 381.462 C 441 390.677, 445.076 395.363, 454.178 396.611 C 460.064 397.418, 466.001 395.645, 471.518 391.434 L 476.117 387.924 479.904 390.924 C 481.988 392.574, 484.237 394.581, 484.903 395.383 C 485.955 396.651, 486.793 396.569, 491.307 394.753 C 498.163 391.995, 498.308 391.820, 496.535 388.421 C 494.496 384.510, 494.617 378.759, 497.030 365 C 501.258 340.884, 501.292 334.191, 497.212 329.682 C 492.542 324.521, 477.241 322.768, 463.294 325.797 M 642.081 325.524 C 632.085 328.331, 626.418 333.477, 621.504 344.210 C 615.850 356.560, 614.294 377.894, 618.432 386.339 C 622.046 393.717, 632.463 397.806, 644.727 396.661 C 661.590 395.086, 671.827 384.281, 676.108 363.538 C 678.374 352.560, 678.481 345.983, 676.502 339.319 C 674.612 332.954, 671.906 329.503, 666.737 326.866 C 661.319 324.102, 649.448 323.456, 642.081 325.524 M 695 326.796 C 691.975 328.267, 689.379 329.523, 689.232 329.586 C 689.085 329.650, 689.645 331.007, 690.476 332.601 C 692.805 337.067, 692.336 344.143, 688 370 C 685.800 383.119, 684 394.110, 684 394.426 C 684 394.965, 703.992 395.289, 704.007 394.750 C 704.011 394.613, 706.032 382.800, 708.499 368.500 C 713.395 340.118, 713.579 339.665, 720 340.205 C 723.120 340.468, 723.533 340.842, 723.806 343.653 C 723.975 345.387, 722.287 357.377, 720.056 370.296 C 717.825 383.216, 716 394.059, 716 394.393 C 716 394.727, 720.491 395, 725.981 395 C 735.515 395, 735.984 394.899, 736.467 392.750 C 736.745 391.512, 738.773 379.753, 740.975 366.618 C 745.361 340.450, 745.514 340.089, 752.250 340.032 L 756 340 756 344.343 C 756 347.913, 750.280 384.644, 748.456 392.785 C 747.946 395.064, 747.973 395.070, 758.194 394.785 L 768.443 394.500 772.673 370 C 777.083 344.455, 777.816 335.145, 775.735 331.096 C 773.564 326.872, 769.695 324.825, 762.870 324.288 C 757.004 323.827, 755.953 324.074, 749.583 327.407 L 742.667 331.025 740.007 327.839 C 737.664 325.033, 736.620 324.600, 731.262 324.213 C 726.203 323.847, 724.197 324.221, 719.366 326.433 C 716.169 327.896, 712.742 329.829, 711.749 330.727 C 710.056 332.259, 709.678 332.100, 705.684 328.181 C 703.341 325.881, 701.216 324.027, 700.962 324.061 C 700.708 324.094, 698.025 325.325, 695 326.796 M 811.186 325.497 C 808.264 326.319, 803.935 328.324, 801.568 329.953 C 791.742 336.713, 785.046 353.751, 785.015 372.071 C 785.002 379.460, 785.379 381.387, 787.750 386.050 C 789.979 390.435, 791.441 391.936, 795.473 393.979 C 799.770 396.157, 801.744 396.497, 809.973 396.476 C 821.234 396.447, 827.013 394.339, 833.655 387.837 C 846.955 374.818, 851.225 342.146, 841.129 330.644 C 836.159 324.981, 821.797 322.513, 811.186 325.497 M 922.186 325.497 C 910.915 328.667, 904.017 336.255, 899.224 350.756 C 897.082 357.238, 896.652 360.455, 896.583 370.500 C 896.507 381.530, 896.702 382.859, 899 386.946 C 902.915 393.910, 908.886 396.503, 920.973 396.490 C 929.117 396.481, 931.298 396.105, 936 393.896 C 939.025 392.476, 943.019 389.780, 944.876 387.907 C 954.132 378.567, 960.602 352.906, 956.984 339.882 C 955.458 334.389, 951.886 329.756, 947.171 327.153 C 941.671 324.117, 929.873 323.335, 922.186 325.497 M 974.804 327.037 L 969.107 329.978 970.547 332.739 C 972.820 337.095, 972.289 344.809, 967.999 369.763 C 965.800 382.558, 964 393.470, 964 394.013 C 964 394.596, 968.051 395, 973.892 395 C 983.330 395, 983.807 394.897, 984.301 392.750 C 984.585 391.512, 986.530 380.210, 988.622 367.633 C 992.944 341.654, 992.754 342.017, 1002.510 341.208 L 1007.835 340.766 1008.918 334.551 C 1010.479 325.584, 1010.360 323.761, 1008.250 324.373 C 1007.288 324.652, 1004.582 325.377, 1002.237 325.983 C 999.892 326.588, 996.378 328.485, 994.428 330.197 L 990.883 333.310 986.157 328.655 C 983.558 326.095, 981.222 324.022, 980.966 324.048 C 980.710 324.075, 977.937 325.420, 974.804 327.037 M 252.530 327.250 C 252.306 327.938, 249.833 342.225, 247.035 359 C 244.236 375.775, 241.698 390.738, 241.394 392.250 L 240.841 395 250.901 395 C 260.514 395, 260.985 394.900, 261.480 392.750 C 261.765 391.512, 264.256 377, 267.017 360.500 C 269.778 344, 272.262 329.488, 272.537 328.250 C 273.031 326.033, 272.892 326, 262.988 326 C 255.831 326, 252.820 326.360, 252.530 327.250 M 516.538 327.250 C 515.384 330.858, 507.994 378.086, 508.049 381.500 C 508.196 390.702, 512.012 395.518, 520.010 396.597 C 526.139 397.425, 531.733 395.731, 537.364 391.344 L 542.079 387.671 545.832 391.336 C 548.873 394.306, 550.334 395, 553.542 395 L 557.500 394.999 562.856 363.250 C 565.802 345.787, 568.446 330.262, 568.731 328.750 L 569.250 326 559.196 326 L 549.142 326 548.090 331.250 C 547.512 334.137, 545.467 345.947, 543.547 357.493 C 539.721 380.498, 539.345 381.328, 533 380.795 C 529.780 380.524, 529.476 380.217, 529.202 376.953 C 528.953 373.997, 534.828 335.625, 536.658 328.250 C 537.210 326.028, 537.091 326, 527.077 326 C 519.845 326, 516.823 326.358, 516.538 327.250 M 87.655 339.133 C 85.501 340.385, 82.054 347.495, 82.022 350.750 C 82.001 352.895, 82.367 353, 89.906 353 L 97.812 353 98.504 347.973 C 99.408 341.395, 97.428 337.986, 92.727 338.030 C 90.952 338.047, 88.670 338.543, 87.655 339.133 M 309.529 340.380 C 306.599 343.310, 304.638 349.719, 302.500 363.352 C 300.369 376.945, 300.673 380.092, 304.285 381.815 C 307.757 383.470, 311.666 382.334, 314.186 378.937 C 316.528 375.779, 319.804 360.920, 320.653 349.604 C 321.250 341.645, 321.125 340.565, 319.469 339.354 C 316.602 337.257, 312.197 337.712, 309.529 340.380 M 645.644 340.066 C 644.027 341.337, 642.448 344.124, 641.535 347.316 C 639.395 354.797, 637 369.473, 637 375.108 C 637 379.190, 637.399 380.216, 639.531 381.613 C 641.460 382.876, 642.830 383.058, 645.281 382.378 C 649.833 381.115, 652.514 375.108, 654.979 360.651 C 657.415 346.370, 657.515 341.658, 655.429 339.571 C 653.242 337.384, 648.765 337.611, 645.644 340.066 M 814.644 340.066 C 813.027 341.337, 811.448 344.124, 810.535 347.316 C 808.395 354.797, 806 369.473, 806 375.108 C 806 379.190, 806.399 380.216, 808.531 381.613 C 812.037 383.909, 816.834 382.449, 819.223 378.357 C 821.584 374.315, 824.795 359.686, 825.644 349.103 C 826.244 341.626, 826.115 340.557, 824.468 339.353 C 821.787 337.393, 817.661 337.692, 814.644 340.066 M 925.648 340.250 C 922.649 342.988, 920.540 349.429, 918.529 362 C 916.276 376.072, 916.457 379.598, 919.531 381.613 C 923.646 384.309, 928.001 382.506, 930.694 376.992 C 933.316 371.621, 935.859 359.645, 936.704 348.679 C 937.246 341.651, 937.100 340.546, 935.468 339.353 C 932.698 337.327, 928.420 337.718, 925.648 340.250 M 472.578 362.485 C 466.667 364.591, 462.878 368.901, 462.281 374.197 C 461.661 379.698, 463.822 382.508, 467.894 381.498 C 472.295 380.406, 474.832 377.156, 475.996 371.116 C 476.592 368.027, 477.295 364.488, 477.558 363.250 C 478.113 360.650, 477.845 360.609, 472.578 362.485" stroke="none" fill="#f4f4f4" fill-rule="evenodd"/></svg>