<svg xmlns="http://www.w3.org/2000/svg" width="2048" height="512" viewBox="0 0 2048 512" version="1.1"><path d="M 1609.575 82.651 C 1603.063 84.650, 1594.472 90.170, 1589.405 95.611 C 1585.790 99.494, 1584.156 102.215, 1579.623 111.901 C 1577.989 115.392, 1578.211 133.604, 1579.953 139 C 1585.224 155.326, 1601.239 163.298, 1619.310 158.591 C 1634.129 154.732, 1644.445 146.065, 1650.754 132.175 C 1653.012 127.204, 1653.337 125.135, 1653.373 115.500 C 1653.409 105.987, 1653.103 103.860, 1651.104 99.763 C 1644.145 85.503, 1625.420 77.788, 1609.575 82.651 M 885.500 173.624 C 868.740 175.283, 854.131 183.165, 837.071 199.750 C 833.535 203.188, 830.220 206, 829.705 206 C 829.189 206, 829.041 204.762, 829.375 203.250 C 829.710 201.738, 830.408 197.094, 830.927 192.931 C 831.446 188.768, 832.162 184.204, 832.517 182.790 C 832.925 181.162, 832.692 179.927, 831.881 179.426 C 830.049 178.294, 765.442 178.804, 761.057 179.985 C 757.008 181.075, 757.272 180.201, 753.957 203.500 C 753.332 207.900, 752.166 215.550, 751.368 220.500 C 750.569 225.450, 749.495 232.314, 748.981 235.754 C 748.466 239.194, 747.558 245.269, 746.962 249.254 C 746.367 253.239, 745.262 260.100, 744.507 264.500 C 743.752 268.900, 742.630 275.875, 742.013 280 C 741.396 284.125, 740.486 289.750, 739.990 292.500 C 739.494 295.250, 738.576 301.100, 737.950 305.500 C 737.323 309.900, 735.716 320.250, 734.377 328.500 C 731.484 346.328, 730.444 352.972, 728.977 363 C 728.373 367.125, 727.454 372.950, 726.934 375.944 C 726.314 379.518, 726.333 381.733, 726.991 382.391 C 728.839 384.239, 739.292 384.831, 771.613 384.916 L 803.727 385 804.788 379.250 C 805.372 376.087, 806.363 370.350, 806.990 366.500 C 807.617 362.650, 808.587 357.250, 809.147 354.500 C 810.218 349.236, 811.381 342.464, 812.924 332.500 C 814.398 322.990, 819.535 294.684, 821.907 283.009 C 822.409 280.538, 822.609 278.176, 822.351 277.759 C 821.341 276.125, 815.715 277.492, 808.349 281.161 C 803.381 283.635, 803.672 281.227, 809.027 275.558 C 817.454 266.637, 832.487 255.883, 845.616 249.383 L 857.500 243.500 878.500 243.448 C 890.050 243.420, 900.233 243.307, 901.129 243.198 C 902.910 242.981, 904.537 239.451, 905.366 234 C 905.659 232.075, 906.650 226.675, 907.568 222 C 910.893 205.064, 913.578 182.427, 912.681 178.891 C 911.673 174.918, 908.336 173.630, 898.500 173.420 C 893.550 173.315, 887.700 173.406, 885.500 173.624 M 1028 173.737 C 995.757 174.911, 961.353 192.952, 938.221 220.815 C 913.229 250.918, 904.001 292.153, 913.779 330.029 C 917.777 345.518, 932.047 364.310, 947.500 374.437 C 954.638 379.115, 957.706 380.734, 965.750 384.068 C 966.987 384.580, 969.013 385.423, 970.250 385.940 C 976.180 388.419, 987.328 389.232, 1008.551 388.734 C 1029.956 388.232, 1032.495 387.912, 1047.500 383.832 C 1049.700 383.234, 1053.875 381.677, 1056.777 380.372 C 1059.680 379.067, 1062.213 378, 1062.406 378 C 1063.071 378, 1073.507 371.470, 1079.500 367.304 C 1086.509 362.432, 1094.854 354.563, 1100.502 347.500 C 1102.701 344.750, 1104.729 342.275, 1105.009 342 C 1108.454 338.618, 1122 311.192, 1122 307.598 C 1122 302.441, 1119.424 302.060, 1084.017 301.973 C 1050.345 301.890, 1049.775 301.959, 1048.400 306.340 C 1047.242 310.028, 1041.236 318.780, 1037.278 322.546 C 1027.734 331.626, 1012.403 334.989, 1002.898 330.089 C 997.260 327.181, 993.310 323.460, 990.908 318.790 C 989.364 315.787, 988.999 312.927, 988.993 303.790 C 988.976 273.570, 996.350 248.767, 1008.224 239.104 C 1016.063 232.726, 1027.713 230.538, 1037.833 233.543 C 1044.679 235.576, 1048.925 239.472, 1052.962 247.424 C 1054.783 251.013, 1057.253 254.591, 1058.451 255.376 C 1062.102 257.768, 1077.272 258.994, 1103.250 258.997 L 1128 259 1127.964 247.750 C 1127.898 226.642, 1122.361 212.553, 1108.850 199.105 C 1099.285 189.585, 1089.075 183.688, 1073.500 178.686 C 1059.767 174.276, 1048.083 173.005, 1028 173.737 M 1523 173.631 C 1520.525 173.860, 1517.600 174.434, 1516.500 174.907 C 1515.400 175.380, 1511.395 177.023, 1507.600 178.559 C 1497.681 182.575, 1490.345 187.833, 1481.163 197.509 C 1473.461 205.626, 1469.910 208.107, 1471.514 204.250 C 1471.914 203.287, 1472.604 199.125, 1473.046 195 C 1473.488 190.875, 1474.161 185.856, 1474.540 183.847 C 1475.688 177.771, 1475.331 177.720, 1436.342 178.358 C 1417.419 178.668, 1401.500 179.191, 1400.968 179.520 C 1400.436 179.849, 1400 181.161, 1400 182.436 C 1400 183.711, 1399.360 187.847, 1398.579 191.627 C 1397.797 195.407, 1396.637 201.875, 1396.001 206 C 1395.365 210.125, 1394.430 215.387, 1393.922 217.693 C 1393.415 219.999, 1393 223.255, 1393 224.928 C 1393 226.602, 1392.570 229.890, 1392.044 232.236 C 1391.518 234.581, 1390.601 240.325, 1390.005 245 C 1389.409 249.675, 1388.505 255.975, 1387.996 259 C 1387.487 262.025, 1386.358 269, 1385.487 274.500 C 1384.616 280, 1383.475 286.419, 1382.952 288.764 C 1382.428 291.110, 1382 294.398, 1382 296.072 C 1382 297.745, 1381.588 301.001, 1381.085 303.307 C 1380.582 305.613, 1379.636 311.325, 1378.983 316 C 1378.331 320.675, 1377.217 327.650, 1376.508 331.500 C 1375.799 335.350, 1374.695 341.875, 1374.054 346 C 1372.015 359.124, 1368.210 380.324, 1367.369 383.250 C 1366.895 384.896, 1369.220 385, 1406.352 385 L 1445.840 385 1447.420 378.053 C 1448.289 374.232, 1449 369.766, 1449 368.129 C 1449 366.492, 1449.428 362.981, 1449.952 360.326 C 1450.475 357.672, 1451.375 352.350, 1451.951 348.500 C 1453.340 339.211, 1457.641 313.626, 1459.599 303 C 1461.147 294.604, 1462.871 282.148, 1462.956 278.750 C 1463.024 276.025, 1459.520 276.606, 1452.453 280.489 C 1448.955 282.411, 1445.841 283.551, 1445.517 283.028 C 1444.661 281.642, 1458.465 267.483, 1465.721 262.305 C 1477.418 253.958, 1493.750 245.778, 1502.154 244.056 C 1505.601 243.350, 1514.883 243.015, 1525.932 243.199 C 1540.361 243.439, 1544.228 243.223, 1544.903 242.143 C 1546.688 239.284, 1548.760 230.122, 1550.926 215.500 C 1551.496 211.650, 1552.647 204.450, 1553.484 199.500 C 1554.320 194.550, 1555.003 187.532, 1555.002 183.905 C 1554.999 174.431, 1554.192 173.896, 1539.321 173.516 C 1532.819 173.350, 1525.475 173.402, 1523 173.631 M 595 175.567 C 583.918 177.777, 569.409 182.276, 567.550 184.079 C 567.027 184.585, 566.072 185, 565.427 185 C 563.754 185, 549.505 193.612, 543 198.555 C 525.302 212.004, 509.717 232.829, 501.506 254 C 500.546 256.475, 499.402 259.400, 498.964 260.500 C 498.526 261.600, 497.884 263.625, 497.538 265 C 497.192 266.375, 496.294 269.750, 495.542 272.500 C 494.791 275.250, 493.429 283.332, 492.515 290.459 C 491.124 301.312, 491.040 305.131, 491.995 313.959 C 494.211 334.431, 500.873 349.646, 513 361.929 C 517.125 366.107, 521.625 370.403, 523 371.476 C 526.534 374.234, 538.750 380.452, 543.500 381.911 C 545.700 382.587, 548.400 383.524, 549.500 383.994 C 551.739 384.951, 553.110 385.248, 568 387.998 C 585.791 391.284, 607.837 390.299, 625.664 385.423 C 635.715 382.674, 637.411 382.194, 640.750 381.153 C 648.418 378.762, 667.852 368.474, 674 363.549 C 680.238 358.553, 692.968 344.913, 696.805 339.113 C 701.378 332.201, 702.789 328.389, 701.320 326.920 C 699.673 325.273, 673.062 323.753, 654.500 324.246 C 635.595 324.748, 633.985 325.086, 626.417 330.140 C 617.144 336.332, 597.884 339.571, 585.554 337.011 C 580.566 335.976, 578.882 335.019, 574.819 330.913 C 572.169 328.234, 570 325.358, 570 324.521 C 570 323.685, 569.609 323, 569.132 323 C 568.171 323, 565.279 313.210, 564.848 308.499 C 564.282 302.310, 564.284 302.309, 604 301.478 C 662.149 300.261, 705.660 298.911, 709.488 298.205 C 713.424 297.480, 713.488 297.398, 714.317 291.985 C 715.631 283.402, 714.442 246.705, 712.575 238.254 C 709.384 223.806, 705.570 215.297, 697.669 205 C 691.437 196.878, 685.156 191.594, 676.097 186.852 C 661.816 179.377, 656.390 177.935, 633.500 175.530 C 616.844 173.780, 603.893 173.793, 595 175.567 M 1758.500 175.212 C 1751.385 176.305, 1748.283 177.070, 1737 180.520 C 1728.647 183.074, 1713.006 190.158, 1710.683 192.439 C 1710.032 193.078, 1707.025 195.428, 1704 197.663 C 1692.939 205.833, 1682.321 217.591, 1674.132 230.739 C 1671.309 235.271, 1669 239.196, 1669 239.462 C 1669 239.728, 1667.927 242.320, 1666.616 245.223 C 1665.304 248.125, 1663.684 252.075, 1663.015 254 C 1662.346 255.925, 1661.443 258.400, 1661.010 259.500 C 1660.576 260.600, 1659.523 264.200, 1658.670 267.500 C 1657.817 270.800, 1656.538 275.750, 1655.827 278.500 C 1655.002 281.691, 1654.557 289.651, 1654.596 300.500 C 1654.651 315.564, 1654.964 318.692, 1657.346 327.967 C 1658.824 333.724, 1660.476 338.876, 1661.017 339.417 C 1661.558 339.958, 1662 340.961, 1662 341.646 C 1662 343.315, 1668.656 354.593, 1671.905 358.429 C 1675.653 362.856, 1681.959 369.074, 1686 372.328 C 1690.414 375.883, 1703.505 382.232, 1712 384.938 C 1732.984 391.623, 1761.617 391.693, 1787 385.122 C 1794.502 383.180, 1807.685 377.545, 1818 371.871 C 1829.711 365.430, 1843.658 352.678, 1852.060 340.730 C 1857.316 333.256, 1868 312.930, 1868 310.405 C 1868 309.617, 1868.432 308.191, 1868.959 307.236 C 1869.487 306.281, 1871.148 300.550, 1872.650 294.500 C 1875.205 284.211, 1875.385 282.047, 1875.441 261 C 1875.506 236.330, 1875.222 234.764, 1867.929 219.479 C 1862.722 208.564, 1848.198 193.302, 1836.489 186.441 C 1820.642 177.154, 1782.043 171.596, 1758.500 175.212 M 167.500 178.759 C 141.969 179.047, 142 179.039, 142 185.748 C 142 187.600, 141.588 191.001, 141.084 193.307 C 140.072 197.935, 138.332 208, 136.814 218 C 136.272 221.575, 135.450 226.975, 134.989 230 C 134.527 233.025, 133.695 238.650, 133.140 242.500 C 132.135 249.472, 129.498 266.478, 126.474 285.500 C 124.610 297.219, 123.448 304.847, 122.056 314.500 C 121.501 318.350, 120.326 326, 119.445 331.500 C 117.946 340.855, 117.411 344.560, 114.963 362.500 C 114.437 366.350, 113.727 372.917, 113.384 377.093 L 112.761 384.685 121.131 385.337 C 131.730 386.162, 176.825 386.184, 183.620 385.367 L 188.739 384.752 190.418 376.126 C 192.167 367.135, 193.179 361.275, 195.012 349.500 C 195.611 345.650, 196.533 339.800, 197.060 336.500 C 198.590 326.919, 200.805 312.160, 202.012 303.500 C 202.625 299.100, 203.549 293.328, 204.064 290.674 C 204.579 288.019, 205 283.407, 205 280.424 C 205 275.529, 204.789 275, 202.836 275 C 201.645 275, 197.314 276.594, 193.210 278.541 C 189.107 280.489, 185.504 281.837, 185.203 281.537 C 183.962 280.295, 200.194 263.957, 213.058 253.500 C 224.045 244.568, 243.785 240.313, 253.901 244.696 C 262.632 248.478, 263.781 260.672, 258.927 298 C 258.140 304.051, 257.191 310.639, 254.965 325.500 C 254.471 328.800, 253.631 334.650, 253.098 338.500 C 252.566 342.350, 251.409 349.775, 250.528 355 C 249.647 360.225, 248.484 368.045, 247.943 372.379 C 247.402 376.712, 246.731 380.627, 246.452 381.078 C 245.299 382.944, 250.865 384.152, 264.777 385.054 C 272.875 385.580, 285.575 386.456, 293 387.001 C 300.425 387.546, 309.970 387.994, 314.211 387.996 L 321.923 388 322.973 384.101 C 324.746 377.516, 325.942 371.325, 328.983 353 C 329.485 349.975, 330.615 343.450, 331.495 338.500 C 333.248 328.627, 334.563 320.221, 336.031 309.500 C 336.558 305.650, 337.428 299.575, 337.964 296 C 338.500 292.425, 339.366 286.575, 339.890 283 C 341.512 271.931, 345.053 255.799, 346.457 253.083 C 348.516 249.101, 351.186 247.135, 357.607 244.872 C 362.382 243.189, 365.208 242.872, 372.500 243.203 C 382.595 243.662, 385.466 244.899, 387.483 249.658 C 390.633 257.091, 390.370 269.508, 386.482 297 C 385.666 302.775, 384.525 310.875, 383.947 315 C 383.370 319.125, 382.499 324.975, 382.011 328 C 381.524 331.025, 380.656 336.650, 380.083 340.500 C 378.459 351.400, 376.013 366.941, 374.958 373.060 C 373.220 383.144, 373.412 383.804, 378.250 384.410 C 380.587 384.702, 395.325 385.411, 411 385.983 C 433.678 386.812, 440.714 386.761, 445.444 385.733 C 452.138 384.278, 451.732 384.982, 453.936 371 C 454.586 366.875, 455.727 360.125, 456.470 356 C 457.931 347.891, 459.132 340.240, 461.965 321 C 462.492 317.425, 463.392 311.350, 463.967 307.500 C 465.085 300.001, 466.417 290.410, 467.958 278.750 C 468.486 274.762, 469.676 266.550, 470.604 260.500 C 471.531 254.450, 472.481 242.658, 472.715 234.296 L 473.139 219.092 469.077 210.423 C 462.655 196.718, 451.326 186.793, 436 181.442 C 426.786 178.226, 402.348 178.581, 388.500 182.132 C 380.213 184.258, 376.469 185.381, 375.500 186.032 C 374.950 186.401, 372.156 187.527, 369.292 188.534 C 363.799 190.465, 356.089 195.779, 348.609 202.790 C 346.139 205.105, 343.907 207, 343.651 207 C 343.394 207, 339.880 203.811, 335.842 199.913 C 322.928 187.446, 311.171 181.218, 297.261 179.475 C 271.373 176.231, 248.636 181.550, 229.268 195.383 C 224.295 198.935, 217.385 203, 216.321 203 C 215.982 203, 216.059 199.287, 216.492 194.750 C 216.926 190.213, 217.331 184.700, 217.391 182.500 L 217.500 178.500 204 178.500 C 196.575 178.500, 180.150 178.617, 167.500 178.759 M 1299.851 179.678 C 1299.314 180.327, 1298.210 185.052, 1297.399 190.178 C 1296.588 195.305, 1295.447 202.200, 1294.863 205.500 C 1294.280 208.800, 1293.435 213.975, 1292.987 217 C 1291.870 224.542, 1290.409 233.729, 1288.535 245 C 1284.874 267.017, 1283.419 275.367, 1282.088 282 C 1281.591 284.475, 1280.695 288.975, 1280.095 292 C 1277.741 303.879, 1277.278 305.613, 1275.612 308.810 C 1273.609 312.653, 1267.195 320, 1265.843 320 C 1265.335 320, 1263.676 320.919, 1262.156 322.043 C 1260.636 323.166, 1256.492 324.775, 1252.946 325.618 C 1242.226 328.166, 1233.348 325.188, 1229.230 317.662 C 1227.805 315.057, 1227.511 311.944, 1227.563 300 C 1227.598 292.025, 1228.155 282.125, 1228.802 278 C 1229.448 273.875, 1230.923 263.750, 1232.079 255.500 C 1233.236 247.250, 1234.608 237.575, 1235.130 234 C 1235.651 230.425, 1236.472 224.575, 1236.954 221 C 1237.436 217.425, 1238.737 209.325, 1239.846 203 C 1240.955 196.675, 1242.176 188.688, 1242.560 185.250 L 1243.258 179 1204.243 179 L 1165.227 179 1164.713 181.750 C 1163.307 189.282, 1159.942 209.362, 1158.974 216 C 1158.373 220.125, 1157.485 226.200, 1157 229.500 C 1156.090 235.698, 1154.511 247.135, 1153.479 255 C 1152.815 260.069, 1149.526 283.120, 1148.058 293 C 1147.527 296.575, 1146.625 302.650, 1146.055 306.500 C 1142.044 333.558, 1142.016 346.265, 1145.945 355.500 C 1149.393 363.603, 1150.801 365.942, 1154.819 370.238 C 1161.546 377.429, 1167.401 381.301, 1178 385.568 C 1187.109 389.235, 1188.074 389.410, 1201.432 389.815 C 1220.583 390.395, 1228.939 388.569, 1248.500 379.530 C 1255.972 376.077, 1262.384 371.833, 1269.475 365.646 C 1271.111 364.218, 1272.780 363.380, 1273.183 363.783 C 1273.586 364.186, 1273.465 367.438, 1272.914 371.008 C 1272.363 374.579, 1271.643 379.218, 1271.315 381.318 L 1270.718 385.136 1307.109 384.739 C 1327.124 384.520, 1344.513 383.987, 1345.750 383.554 C 1347.560 382.921, 1348 382.010, 1348 378.898 C 1348 376.770, 1348.431 373.110, 1348.958 370.764 C 1349.485 368.419, 1350.624 361.775, 1351.489 356 C 1353.348 343.593, 1354.528 335.873, 1355.922 327 C 1356.484 323.425, 1357.637 316, 1358.483 310.500 C 1359.330 305, 1360.458 297.686, 1360.989 294.246 C 1362.032 287.487, 1363.415 278.092, 1365 267 C 1367.140 252.019, 1368.005 246.140, 1369.487 236.500 C 1371.003 226.639, 1371.990 219.984, 1374.048 205.750 C 1374.625 201.762, 1375.525 196.328, 1376.048 193.674 C 1377.394 186.848, 1377.251 180.030, 1375.750 179.474 C 1375.063 179.220, 1357.924 178.897, 1337.664 178.756 C 1310.337 178.566, 1300.576 178.804, 1299.851 179.678 M 1601 179.083 C 1587.525 179.404, 1575.754 179.999, 1574.842 180.405 C 1572.199 181.582, 1570.183 188.938, 1568.376 204 C 1568.145 205.925, 1567.536 209.750, 1567.022 212.500 C 1566.509 215.250, 1565.619 220.875, 1565.046 225 C 1564.472 229.125, 1563.069 238.125, 1561.927 245 C 1560.785 251.875, 1559.464 260.200, 1558.993 263.500 C 1556.490 281.011, 1555.768 286.072, 1554.929 292 C 1554.422 295.575, 1553.773 300.075, 1553.486 302 C 1553.199 303.925, 1552.533 308.425, 1552.007 312 C 1548.795 333.815, 1545.874 352.069, 1545.004 355.764 C 1544.452 358.110, 1544 361.233, 1544 362.704 C 1544 365.340, 1542.650 373.915, 1541.080 381.250 L 1540.278 385 1577.416 385 C 1618.968 385, 1619 384.995, 1619 378.520 C 1619 376.668, 1619.423 372.981, 1619.940 370.326 C 1620.457 367.672, 1621.602 361, 1622.484 355.500 C 1624.002 346.032, 1624.723 341.392, 1626.951 326.750 C 1627.475 323.313, 1628.616 316, 1629.487 310.500 C 1630.359 305, 1631.525 297.575, 1632.079 294 C 1632.633 290.425, 1633.330 286.150, 1633.628 284.500 C 1634.161 281.548, 1635.177 274.297, 1636.989 260.500 C 1637.933 253.308, 1638.627 248.539, 1641.496 229.500 C 1642.408 223.450, 1643.570 215.463, 1644.077 211.750 C 1644.585 208.037, 1645.457 201.738, 1646.015 197.750 C 1648.222 181.978, 1648.359 179.012, 1646.889 178.802 C 1644.058 178.399, 1624.798 178.517, 1601 179.083 M 597 227.686 C 593.210 229.623, 579.150 243.151, 574.540 249.296 C 572.874 251.517, 572.067 253.449, 572.596 253.953 C 574.684 255.940, 589.569 257, 615.383 257 C 635.809 257, 643.074 256.689, 643.629 255.791 C 646.305 251.461, 641.621 238.508, 635.405 233.051 C 629.560 227.919, 625.795 226.814, 612.504 226.332 C 602.365 225.964, 599.956 226.175, 597 227.686 M 1759.500 235.043 C 1756.750 236.109, 1752.987 238.405, 1751.138 240.145 C 1747.370 243.693, 1741 253.185, 1741 255.252 C 1741 255.993, 1740.610 257.028, 1740.134 257.550 C 1739.657 258.072, 1738.502 261.650, 1737.566 265.500 C 1736.631 269.350, 1735.445 274.127, 1734.933 276.116 C 1734.420 278.105, 1734 287.719, 1734 297.481 C 1734 314.633, 1734.086 315.385, 1736.553 319.865 C 1737.956 322.414, 1741.156 326.053, 1743.663 327.952 C 1748.079 331.296, 1748.508 331.405, 1757.361 331.434 C 1765.239 331.459, 1767.259 331.097, 1772 328.810 C 1783.059 323.474, 1791.335 310.458, 1795.404 292 C 1800.550 268.659, 1799.141 244.581, 1792.297 238.904 C 1785.372 233.160, 1769.252 231.262, 1759.500 235.043" stroke="none" fill="#1e3670" fill-rule="evenodd"/></svg>