<svg xmlns="http://www.w3.org/2000/svg" width="1080" height="1080" viewBox="0 0 1080 1080" version="1.1"><path d="M 682.287 422.343 C 678.108 426.292, 677.649 427.189, 677.231 432.232 C 676.796 437.471, 676.967 437.993, 680.310 441.640 C 683.526 445.147, 684.298 445.494, 688.765 445.430 C 695.219 445.339, 700.224 442.235, 702.929 436.647 C 707.871 426.439, 702.914 418, 691.977 418 C 687.340 418, 686.472 418.389, 682.287 422.343 M 423.905 451.496 C 421.272 452.341, 417.266 454.874, 414.522 457.428 L 409.735 461.887 410.320 456.943 L 410.906 452 397.472 452 C 384.359 452, 384.026 452.054, 383.525 454.250 C 383.243 455.488, 380.767 470.900, 378.023 488.500 C 375.279 506.100, 372.812 521.737, 372.542 523.250 L 372.050 526 386.300 526 L 400.550 526 402.368 513.750 C 403.368 507.012, 404.862 498.431, 405.689 494.680 C 406.516 490.928, 406.966 487.633, 406.689 487.356 C 406.412 487.079, 404.753 487.593, 403.003 488.499 C 400.559 489.762, 400.015 489.821, 400.660 488.750 C 402.536 485.635, 410.070 479.857, 415.496 477.373 C 420.595 475.039, 422.116 474.796, 428.572 475.284 C 435.861 475.835, 435.878 475.831, 436.413 473.168 C 438.093 464.809, 440.039 451.705, 439.656 451.323 C 438.400 450.067, 428.003 450.181, 423.905 451.496 M 655.500 450.874 C 650.821 452.089, 647.852 453.896, 643.191 458.367 L 638.881 462.500 639.570 457.250 L 640.258 452 626.629 452 C 617.241 452, 613 452.348, 613 453.119 C 613 453.735, 610.525 469.757, 607.500 488.724 C 604.475 507.692, 602 523.838, 602 524.605 C 602 525.732, 604.691 526, 616 526 C 623.700 526, 630.001 525.888, 630.002 525.750 C 630.014 524.116, 636.027 490.039, 636.531 488.750 C 637.406 486.507, 635.253 486.434, 632.158 488.602 C 627.813 491.645, 628.939 489.241, 633.980 484.708 C 642.107 477.401, 646.958 475.486, 657.106 475.579 L 665.712 475.658 667.526 463.832 C 668.523 457.328, 669.099 451.766, 668.805 451.472 C 667.832 450.499, 658.551 450.082, 655.500 450.874 M 318.942 452.828 C 302.990 458.681, 291.826 472.248, 288.955 489.268 C 286.150 505.898, 292.120 518.503, 305.758 524.747 C 316.032 529.450, 333.394 528.896, 345.657 523.473 C 351.385 520.940, 360.351 513.121, 363.307 508.080 L 365.113 505 352.114 505 C 340.516 505, 338.712 505.237, 335.385 507.200 C 332.829 508.708, 329.954 509.416, 326.248 509.450 C 321.374 509.495, 320.551 509.177, 317.920 506.234 C 315.877 503.949, 315 501.922, 315 499.484 L 315 496 341.031 496 C 364.883 496, 367.123 495.853, 367.781 494.250 C 368.177 493.288, 368.474 488.128, 368.441 482.784 C 368.387 473.740, 368.144 472.599, 364.931 466.288 C 362.020 460.569, 360.622 458.996, 356.003 456.236 C 352.992 454.436, 348.946 452.524, 347.014 451.987 C 341.306 450.401, 324.155 450.915, 318.942 452.828 M 469.487 452.799 C 458.671 456.539, 447.790 465.610, 443.106 474.793 C 438.053 484.697, 436.604 498.527, 439.671 507.572 C 442.167 514.931, 451.659 524.038, 459.316 526.419 C 468.512 529.279, 482.514 528.374, 491 524.371 C 500.272 519.998, 507.169 513.383, 511.518 504.695 L 515.119 497.500 501.820 497.219 C 491.695 497.006, 488.421 497.244, 488.106 498.219 C 487.878 498.924, 486.014 501.188, 483.963 503.250 C 480.718 506.514, 479.631 507, 475.572 507 C 471.888 507, 470.365 506.456, 468.318 504.409 C 465.860 501.951, 465.755 501.424, 466.284 494.159 C 467.260 480.728, 471.583 472.864, 478.724 471.524 C 483.914 470.550, 487.567 472.460, 489.432 477.121 L 491.008 481.060 503.754 480.780 L 516.500 480.500 516.155 475 C 515.188 459.572, 503.321 450.956, 483.145 451.033 C 477.616 451.054, 472.693 451.690, 469.487 452.799 M 735.500 452.352 C 723.631 456.264, 714.881 463.912, 709.550 475.035 C 699.316 496.391, 704.514 517.589, 721.867 525.265 C 731.412 529.488, 749.673 528.561, 760.844 523.288 C 775.378 516.428, 786.003 497.264, 784.777 480.123 C 783.921 468.161, 778.422 459.403, 768.500 454.199 C 764.036 451.858, 762.214 451.548, 751.500 451.305 C 743.567 451.126, 738.144 451.481, 735.500 452.352 M 163.571 454.250 C 163.026 456.875, 162.394 460.818, 157.039 495 C 154.842 509.025, 152.789 521.962, 152.477 523.750 L 151.909 527 165.936 527 C 179.658 527, 179.973 526.951, 180.491 524.750 C 181.810 519.148, 186.585 486, 186.073 486.004 C 185.758 486.006, 184.027 486.906, 182.226 488.004 C 177.214 491.059, 177.170 490.429, 182.042 485.376 C 190.938 476.148, 199.494 472.716, 204.491 476.370 C 207.013 478.214, 206.715 485.313, 203.163 508 L 200.423 525.500 206.461 526.133 C 209.783 526.481, 215.979 526.819, 220.231 526.883 C 227.472 526.993, 227.995 526.857, 228.486 524.750 C 228.774 523.513, 230.555 512.643, 232.445 500.596 C 234.662 486.461, 236.407 478.164, 237.365 477.206 C 238.182 476.389, 241.053 475.509, 243.744 475.251 C 253.165 474.345, 253.605 476.933, 249.063 506.489 C 247.459 516.934, 246.235 525.569, 246.345 525.678 C 247.159 526.492, 271.771 526.936, 272.904 526.157 C 273.840 525.514, 275.576 517.073, 278.110 500.846 C 283.210 468.182, 283.140 464.953, 277.186 458.661 C 272.626 453.841, 269.237 452.601, 260.500 452.559 C 251.291 452.514, 247.001 453.778, 239.989 458.601 L 234.980 462.047 231.570 458.637 C 226.425 453.492, 220.486 451.599, 211.598 452.271 C 204.119 452.837, 200.042 454.334, 194.317 458.618 C 192.566 459.928, 190.817 461, 190.431 461 C 190.044 461, 190.006 458.975, 190.345 456.500 L 190.962 452 177.500 452 C 164.345 452, 164.027 452.051, 163.571 454.250 M 530.219 452.843 C 529.407 453.359, 527.458 463.897, 524.889 481.672 C 520.263 513.671, 520.358 515.593, 526.882 522.118 C 535.543 530.778, 554.845 529.787, 565.384 520.140 L 568.268 517.500 567.622 521.750 L 566.976 526 580.469 526 C 593.642 526, 593.974 525.947, 594.477 523.750 C 595.070 521.159, 605 455.241, 605 453.893 C 605 453.402, 598.768 453, 591.152 453 L 577.304 453 574.101 473.250 C 570.297 497.301, 569.768 499.176, 565.857 502.467 C 562.102 505.626, 555.209 505.994, 552.655 503.171 C 550.405 500.685, 550.531 498.086, 554.054 474.462 C 555.733 463.198, 556.831 453.536, 556.495 452.991 C 555.758 451.800, 532.074 451.667, 530.219 452.843 M 674.519 455.351 C 672.610 466.613, 664 523.162, 664 524.437 C 664 525.780, 665.973 526, 678 526 C 688.528 526, 692.003 525.690, 692.011 524.750 C 692.017 524.063, 694.473 507.789, 697.468 488.586 C 700.464 469.384, 702.671 453.277, 702.373 452.794 C 702.074 452.311, 695.805 451.980, 688.441 452.059 L 675.053 452.202 674.519 455.351 M 325.218 470.663 C 322.018 472.241, 318.967 475.722, 317.694 479.250 C 317.114 480.859, 318.106 481, 330.031 481 L 343 481 343 477.923 C 343 473.113, 338.292 468.994, 332.827 469.023 C 330.447 469.035, 327.023 469.773, 325.218 470.663 M 743.507 472.156 C 742.010 472.557, 739.943 473.647, 738.914 474.578 C 735.761 477.431, 732.833 486.837, 732.659 494.667 C 732.519 500.996, 732.784 502.137, 734.924 504.417 C 738.040 507.736, 745.390 508.054, 749.226 505.037 C 755.529 500.079, 759.006 481.242, 754.803 474.823 C 752.948 471.991, 748.262 470.885, 743.507 472.156" stroke="none" fill="#1e3773" fill-rule="evenodd"/><path d="M 0 540.001 L 0 1080.002 540.250 1079.751 L 1080.500 1079.500 1080.751 539.750 L 1081.002 -0 540.501 -0 L 0 0 0 540.001 M 0.496 540.500 C 0.496 837.500, 0.610 958.851, 0.750 810.168 C 0.890 661.485, 0.890 418.485, 0.750 270.168 C 0.610 121.851, 0.496 243.500, 0.496 540.500 M 682.287 422.343 C 678.108 426.292, 677.649 427.189, 677.231 432.232 C 676.796 437.471, 676.967 437.993, 680.310 441.640 C 683.526 445.147, 684.298 445.494, 688.765 445.430 C 695.219 445.339, 700.224 442.235, 702.929 436.647 C 707.871 426.439, 702.914 418, 691.977 418 C 687.340 418, 686.472 418.389, 682.287 422.343 M 423.905 451.496 C 421.272 452.341, 417.266 454.874, 414.522 457.428 L 409.735 461.887 410.320 456.943 L 410.906 452 397.472 452 C 384.359 452, 384.026 452.054, 383.525 454.250 C 383.243 455.488, 380.767 470.900, 378.023 488.500 C 375.279 506.100, 372.812 521.737, 372.542 523.250 L 372.050 526 386.300 526 L 400.550 526 402.368 513.750 C 403.368 507.012, 404.862 498.431, 405.689 494.680 C 406.516 490.928, 406.966 487.633, 406.689 487.356 C 406.412 487.079, 404.753 487.593, 403.003 488.499 C 400.559 489.762, 400.015 489.821, 400.660 488.750 C 402.536 485.635, 410.070 479.857, 415.496 477.373 C 420.595 475.039, 422.116 474.796, 428.572 475.284 C 435.861 475.835, 435.878 475.831, 436.413 473.168 C 438.093 464.809, 440.039 451.705, 439.656 451.323 C 438.400 450.067, 428.003 450.181, 423.905 451.496 M 655.500 450.874 C 650.821 452.089, 647.852 453.896, 643.191 458.367 L 638.881 462.500 639.570 457.250 L 640.258 452 626.629 452 C 617.241 452, 613 452.348, 613 453.119 C 613 453.735, 610.525 469.757, 607.500 488.724 C 604.475 507.692, 602 523.838, 602 524.605 C 602 525.732, 604.691 526, 616 526 C 623.700 526, 630.001 525.888, 630.002 525.750 C 630.014 524.116, 636.027 490.039, 636.531 488.750 C 637.406 486.507, 635.253 486.434, 632.158 488.602 C 627.813 491.645, 628.939 489.241, 633.980 484.708 C 642.107 477.401, 646.958 475.486, 657.106 475.579 L 665.712 475.658 667.526 463.832 C 668.523 457.328, 669.099 451.766, 668.805 451.472 C 667.832 450.499, 658.551 450.082, 655.500 450.874 M 318.942 452.828 C 302.990 458.681, 291.826 472.248, 288.955 489.268 C 286.150 505.898, 292.120 518.503, 305.758 524.747 C 316.032 529.450, 333.394 528.896, 345.657 523.473 C 351.385 520.940, 360.351 513.121, 363.307 508.080 L 365.113 505 352.114 505 C 340.516 505, 338.712 505.237, 335.385 507.200 C 332.829 508.708, 329.954 509.416, 326.248 509.450 C 321.374 509.495, 320.551 509.177, 317.920 506.234 C 315.877 503.949, 315 501.922, 315 499.484 L 315 496 341.031 496 C 364.883 496, 367.123 495.853, 367.781 494.250 C 368.177 493.288, 368.474 488.128, 368.441 482.784 C 368.387 473.740, 368.144 472.599, 364.931 466.288 C 362.020 460.569, 360.622 458.996, 356.003 456.236 C 352.992 454.436, 348.946 452.524, 347.014 451.987 C 341.306 450.401, 324.155 450.915, 318.942 452.828 M 469.487 452.799 C 458.671 456.539, 447.790 465.610, 443.106 474.793 C 438.053 484.697, 436.604 498.527, 439.671 507.572 C 442.167 514.931, 451.659 524.038, 459.316 526.419 C 468.512 529.279, 482.514 528.374, 491 524.371 C 500.272 519.998, 507.169 513.383, 511.518 504.695 L 515.119 497.500 501.820 497.219 C 491.695 497.006, 488.421 497.244, 488.106 498.219 C 487.878 498.924, 486.014 501.188, 483.963 503.250 C 480.718 506.514, 479.631 507, 475.572 507 C 471.888 507, 470.365 506.456, 468.318 504.409 C 465.860 501.951, 465.755 501.424, 466.284 494.159 C 467.260 480.728, 471.583 472.864, 478.724 471.524 C 483.914 470.550, 487.567 472.460, 489.432 477.121 L 491.008 481.060 503.754 480.780 L 516.500 480.500 516.155 475 C 515.188 459.572, 503.321 450.956, 483.145 451.033 C 477.616 451.054, 472.693 451.690, 469.487 452.799 M 735.500 452.352 C 723.631 456.264, 714.881 463.912, 709.550 475.035 C 699.316 496.391, 704.514 517.589, 721.867 525.265 C 731.412 529.488, 749.673 528.561, 760.844 523.288 C 775.378 516.428, 786.003 497.264, 784.777 480.123 C 783.921 468.161, 778.422 459.403, 768.500 454.199 C 764.036 451.858, 762.214 451.548, 751.500 451.305 C 743.567 451.126, 738.144 451.481, 735.500 452.352 M 163.571 454.250 C 163.026 456.875, 162.394 460.818, 157.039 495 C 154.842 509.025, 152.789 521.962, 152.477 523.750 L 151.909 527 165.936 527 C 179.658 527, 179.973 526.951, 180.491 524.750 C 181.810 519.148, 186.585 486, 186.073 486.004 C 185.758 486.006, 184.027 486.906, 182.226 488.004 C 177.214 491.059, 177.170 490.429, 182.042 485.376 C 190.938 476.148, 199.494 472.716, 204.491 476.370 C 207.013 478.214, 206.715 485.313, 203.163 508 L 200.423 525.500 206.461 526.133 C 209.783 526.481, 215.979 526.819, 220.231 526.883 C 227.472 526.993, 227.995 526.857, 228.486 524.750 C 228.774 523.513, 230.555 512.643, 232.445 500.596 C 234.662 486.461, 236.407 478.164, 237.365 477.206 C 238.182 476.389, 241.053 475.509, 243.744 475.251 C 253.165 474.345, 253.605 476.933, 249.063 506.489 C 247.459 516.934, 246.235 525.569, 246.345 525.678 C 247.159 526.492, 271.771 526.936, 272.904 526.157 C 273.840 525.514, 275.576 517.073, 278.110 500.846 C 283.210 468.182, 283.140 464.953, 277.186 458.661 C 272.626 453.841, 269.237 452.601, 260.500 452.559 C 251.291 452.514, 247.001 453.778, 239.989 458.601 L 234.980 462.047 231.570 458.637 C 226.425 453.492, 220.486 451.599, 211.598 452.271 C 204.119 452.837, 200.042 454.334, 194.317 458.618 C 192.566 459.928, 190.817 461, 190.431 461 C 190.044 461, 190.006 458.975, 190.345 456.500 L 190.962 452 177.500 452 C 164.345 452, 164.027 452.051, 163.571 454.250 M 530.219 452.843 C 529.407 453.359, 527.458 463.897, 524.889 481.672 C 520.263 513.671, 520.358 515.593, 526.882 522.118 C 535.543 530.778, 554.845 529.787, 565.384 520.140 L 568.268 517.500 567.622 521.750 L 566.976 526 580.469 526 C 593.642 526, 593.974 525.947, 594.477 523.750 C 595.070 521.159, 605 455.241, 605 453.893 C 605 453.402, 598.768 453, 591.152 453 L 577.304 453 574.101 473.250 C 570.297 497.301, 569.768 499.176, 565.857 502.467 C 562.102 505.626, 555.209 505.994, 552.655 503.171 C 550.405 500.685, 550.531 498.086, 554.054 474.462 C 555.733 463.198, 556.831 453.536, 556.495 452.991 C 555.758 451.800, 532.074 451.667, 530.219 452.843 M 674.519 455.351 C 672.610 466.613, 664 523.162, 664 524.437 C 664 525.780, 665.973 526, 678 526 C 688.528 526, 692.003 525.690, 692.011 524.750 C 692.017 524.063, 694.473 507.789, 697.468 488.586 C 700.464 469.384, 702.671 453.277, 702.373 452.794 C 702.074 452.311, 695.805 451.980, 688.441 452.059 L 675.053 452.202 674.519 455.351 M 325.218 470.663 C 322.018 472.241, 318.967 475.722, 317.694 479.250 C 317.114 480.859, 318.106 481, 330.031 481 L 343 481 343 477.923 C 343 473.113, 338.292 468.994, 332.827 469.023 C 330.447 469.035, 327.023 469.773, 325.218 470.663 M 743.507 472.156 C 742.010 472.557, 739.943 473.647, 738.914 474.578 C 735.761 477.431, 732.833 486.837, 732.659 494.667 C 732.519 500.996, 732.784 502.137, 734.924 504.417 C 738.040 507.736, 745.390 508.054, 749.226 505.037 C 755.529 500.079, 759.006 481.242, 754.803 474.823 C 752.948 471.991, 748.262 470.885, 743.507 472.156" stroke="none" fill="#fbfbfb" fill-rule="evenodd"/></svg>